<svg width="10" height="9" viewBox="0 0 10 9" fill="none" xmlns="http://www.w3.org/2000/svg">
<path d="M4.86575 0.00264296C4.75589 0.00298521 4.63438 0.0522704 4.52349 0.16282L2.56612 2.37689H1.0903C0.901721 2.37689 0.748047 2.53056 0.748047 2.71914V5.45721C0.748047 5.64579 0.901721 5.79946 1.0903 5.79946H2.56646L4.51288 8.00292C4.85514 8.34518 5.1974 8.16994 5.1974 7.70344V0.419171C5.1974 0.148445 5.0492 0.000931676 4.86575 0.00195845V0.00264296ZM7.34712 0.687159C7.27433 0.699857 7.2076 0.735771 7.15691 0.789534C7.10622 0.843297 7.07429 0.91202 7.0659 0.985432C7.0575 1.05884 7.07309 1.133 7.11033 1.19682C7.14757 1.26064 7.20446 1.3107 7.27251 1.3395C7.78175 1.59539 8.20962 1.98813 8.50809 2.47365C8.80655 2.95917 8.96382 3.51825 8.96224 4.08817C8.96224 5.29429 8.27772 6.32996 7.27217 6.83685C7.22641 6.85277 7.18455 6.87822 7.14936 6.91153C7.11417 6.94484 7.08646 6.98524 7.06805 7.03005C7.04964 7.07487 7.04096 7.12308 7.04257 7.17151C7.04419 7.21993 7.05606 7.26746 7.07742 7.31095C7.09877 7.35444 7.12912 7.3929 7.16645 7.42379C7.20378 7.45467 7.24724 7.47729 7.29395 7.49012C7.34067 7.50296 7.38959 7.50573 7.43746 7.49826C7.48533 7.49078 7.53106 7.47322 7.57164 7.44675C8.80137 6.82624 9.64675 5.55578 9.64675 4.08817C9.64675 2.62057 8.80103 1.35011 7.57164 0.729599C7.51307 0.696909 7.44618 0.682151 7.37929 0.687159C7.36857 0.686654 7.35784 0.686654 7.34712 0.687159ZM6.53426 2.01307C6.46056 2.01848 6.3906 2.04759 6.33482 2.09606C6.27905 2.14453 6.24046 2.20975 6.22482 2.28197C6.20918 2.35419 6.21734 2.42953 6.24806 2.49673C6.27879 2.56394 6.33045 2.61939 6.3953 2.6548C6.92341 2.98302 7.25095 3.50291 7.25095 4.08817C7.25095 4.67754 6.91827 5.20428 6.38469 5.53216C6.34277 5.55403 6.30584 5.58434 6.27622 5.6212C6.2466 5.65805 6.22494 5.70064 6.2126 5.74628C6.20026 5.79192 6.19751 5.83962 6.20452 5.88638C6.21154 5.93314 6.22816 5.97793 6.25335 6.01794C6.27854 6.05796 6.31174 6.09232 6.35087 6.11886C6.39 6.1454 6.4342 6.16354 6.48069 6.17215C6.52718 6.18075 6.57495 6.17964 6.62099 6.16886C6.66702 6.15809 6.71033 6.13789 6.74817 6.10955C7.45664 5.67488 7.93546 4.93561 7.93546 4.08817C7.93546 3.24588 7.46075 2.50249 6.75878 2.0668C6.70143 2.03016 6.63446 2.01146 6.56643 2.01307C6.55571 2.01256 6.54498 2.01256 6.53426 2.01307Z" fill="black"/>
</svg>
